# xmcd
#
# Track frame offsets:
#	182
#	12262
#	24287
#	38782
#	51035
#	61965
#	73240
#	84157
#	98022
#	110047
#	124645
#	137942
#	150730
#	161470
#	172692
#	185362
#	196595
#	208300
#	219717
#	233892
#	246085
#	259600
#	272350
#	283297
#	296200
#	309380
#	321580
#	332570
#
# Disc length: 4605 seconds
#
# Revision: 1
# Processed by: cddbd v1.5.2PL0 Copyright (c) Steve Scherf et al.
# Submitted via: audiograbber 1.83.01
#
DISCID=9411fb1c
DTITLE=Various Artist - Stompin' Western Swing - Roots of Rock'n'Roll Vol. 2
DYEAR=1996
DGENRE=Western Swing
TTITLE0=Milton Brown - Easy Ridin' Papa
TTITLE1=Adolph Hofner - South Texas Swing
TTITLE2=Bill Boyd - The Eyes of Texas
TTITLE3=Hank Penny - Hot Time Mama
TTITLE4=The Light Crust Doughboys - Knocky Knocky
TTITLE5=Ocie Stockard - Bass Man Jive
TTITLE6=Bob Wills - Oozlin' Daddy Blues
TTITLE7=The Modern Mountaineers - Gettin' That Low-Down Swing
TTITLE8=The Universal Cowboys - Hot Mama Stomp
TTITLE9=Jimmie Davis with Milton Brown's Brownies - High Geared Daddy
TTITLE10=The Modern Mountaineers - Pipeliner Blues
TTITLE11=Spade Cooley - Shame On You
TTITLE12=Hank Penny - Sweet Talkin' Mama
TTITLE13=Roy Newman - Everybody's Tryin' To Be My Baby
TTITLE14=Curly Williams - Southern Belle (From Nashville, Tennessee)
TTITLE15=The Sunshine Boys - No Good For Nothin' Blues
TTITLE16=The Tune Wranglers - Up Jumped the Devil
TTITLE17=W. Lee O'Daniel's Hillbilly Boys - Don't Let the Deal Go Down
TTITLE18=Cliff Brunner - Milk Cow Blues
TTITLE19=The Hi-Flyers - Hi-Flyer Stomp
TTITLE20=The Texas Wanderers - Sundown Blues
TTITLE21=Milton Brown - Somebody's Been Usin' That Thing
TTITLE22=Roy Newman - Texas Stomp
TTITLE23=Cliff Brunner - Bringing Home the Bacon
TTITLE24=The Rice Brothers' Gang - Alabama Jubilee
TTITLE25=Adolph Hofner - Joe Turner Blues
TTITLE26=The Crystal Springs Ramblers - Fort Worth Stomp
TTITLE27=The Blue Ridge Playboys - Give Me My Money
EXTD=
EXTT0=
EXTT1=
EXTT2=
EXTT3=
EXTT4=
EXTT5=
EXTT6=
EXTT7=
EXTT8=
EXTT9=
EXTT10=
EXTT11=
EXTT12=
EXTT13=
EXTT14=
EXTT15=
EXTT16=
EXTT17=
EXTT18=
EXTT19=
EXTT20=
EXTT21=
EXTT22=
EXTT23=
EXTT24=
EXTT25=
EXTT26=
EXTT27=
PLAYORDER=
